<?xml version="1.0" encoding="utf-8"?>
<!-- Generator: Adobe Illustrator 19.1.1, SVG Export Plug-In . SVG Version: 6.00 Build 0)  -->
<svg version="1.1" id="Calque_1" xmlns="http://www.w3.org/2000/svg" xmlns:xlink="http://www.w3.org/1999/xlink" x="0px" y="0px"
	 viewBox="0 0 142.3 165.2" style="enable-background:new 0 0 142.3 165.2;" xml:space="preserve">
<style type="text/css">
	.st0{fill:#009999;}
</style>
<path class="st0" d="M16.8,51.1c-1.7-0.3-3.5,0-5.2,0.8C6.9,54,5,59.4,7.1,64l22.1,46.9h0l0.2,0.5L16.8,51.1z"/>
<path class="st0" d="M32.8,33.2c-1.3-0.3-2.7-0.3-4.1-0.1c-5.1,1.1-8.5,6.1-7.4,11.2l11.1,52.7l0,0l0.3,1.6l0,0L32.8,33.2"/>
<path class="st0" d="M67.1,111.8c0.7-9.7,7.4-18.4,17.3-21.1c6.1-1.6,12.4-0.8,17.8,2.3c5.4,3.1,9.3,8.2,11,14.2
	c0.4,1.6,0.7,3.3,0.8,5c0.4,7.8,7,13.8,14.9,13.4c7.8-0.4,13.8-7,13.4-14.9c-0.2-3.7-0.8-7.4-1.7-11c-3.6-13.4-12.2-24.5-24.2-31.4
	c-12-6.9-26-8.7-39.3-5.1c-2.5,0.7-5,1.6-7.3,2.6c-2.1,1.2-3.9,3-4.7,4.3c-0.3,0.5-0.8,0.8-1.3,0.8c-0.3,0-0.5-0.1-0.7-0.2
	c-0.7-0.4-0.8-1.3-0.6-2c0.8-2.2,2.6-5.8,4.9-7.2l0.1-39.9c0-7.8-6.3-14.2-14.1-14.2c0,0,0,0,0,0C45.3,7.4,39,13.7,39,21.5
	l-0.3,89.4c-0.2,5.2,0.3,10.6,1.7,15.9c6.2,23.1,27.2,38.3,50.1,38.3c4.5,0,9-0.6,13.5-1.8c9-2.4,17.1-7.2,23.5-13.8
	c5.5-5.6,5.4-14.6-0.2-20c-5.6-5.5-14.6-5.4-20,0.2c-2.9,3-6.6,5.1-10.6,6.2c-12.5,3.4-25.4-4-28.8-16.5c-0.4-1.6-0.7-3.1-0.8-4.7
	c0,0,0-0.1,0-0.1L67.1,111.8z"/>
</svg>
